<svg width="28" height="28" viewBox="0 0 28 28" fill="none" xmlns="http://www.w3.org/2000/svg">
<g id="bx:bxl-linkedin">
<path id="Vector" d="M5.81353 8.39653C7.22333 8.39653 8.3662 7.25366 8.3662 5.84387C8.3662 4.43407 7.22333 3.2912 5.81353 3.2912C4.40373 3.2912 3.26086 4.43407 3.26086 5.84387C3.26086 7.25366 4.40373 8.39653 5.81353 8.39653Z" fill="#B6CCDA"/>
<path id="Vector_2" d="M10.7765 10.3308V24.493H15.1737V17.4895C15.1737 15.6415 15.5213 13.8518 17.8127 13.8518C20.0725 13.8518 20.1005 15.9646 20.1005 17.6061V24.4941H24.5V16.7276C24.5 12.9126 23.6787 9.9808 19.2197 9.9808C17.0788 9.9808 15.6438 11.1556 15.057 12.2675H14.9975V10.3308H10.7765ZM3.61084 10.3308H8.01501V24.493H3.61084V10.3308Z" fill="#B6CCDA"/>
</g>
</svg>
