<svg width="38" height="162" viewBox="0 0 38 162" fill="none" xmlns="http://www.w3.org/2000/svg">
<g id="Color Indicator">
<g id="Ellipse 2" filter="url(#filter0_d_202_107)">
<circle cx="19" cy="59" r="15" fill="#ABC6D6"/>
<circle cx="19" cy="59" r="13.5" stroke="white" stroke-width="3"/>
</g>
<circle id="Ellipse 3" cx="19" cy="10" r="9.5" fill="#404354" stroke="white"/>
<circle id="Ellipse 4" cx="19" cy="108" r="9.5" fill="#58D7C4" stroke="white"/>
<circle id="Ellipse 5" cx="19" cy="152" r="9.5" fill="#F2CEC6" stroke="white"/>
<circle id="Ellipse 6" cx="19" cy="24" r="1" fill="white"/>
<circle id="Ellipse 7" cx="19" cy="28" r="1" fill="white"/>
<circle id="Ellipse 8" cx="19" cy="32" r="1" fill="white"/>
<circle id="Ellipse 9" cx="19" cy="36" r="1" fill="white"/>
<circle id="Ellipse 10" cx="19" cy="40" r="1" fill="white"/>
<circle id="Ellipse 20" cx="19" cy="78" r="1" fill="white"/>
<circle id="Ellipse 21" cx="19" cy="82" r="1" fill="white"/>
<circle id="Ellipse 22" cx="19" cy="86" r="1" fill="white"/>
<circle id="Ellipse 23" cx="19" cy="90" r="1" fill="white"/>
<circle id="Ellipse 24" cx="19" cy="94" r="1" fill="white"/>
<circle id="Ellipse 31" cx="19" cy="122" r="1" fill="white"/>
<circle id="Ellipse 32" cx="19" cy="126" r="1" fill="white"/>
<circle id="Ellipse 33" cx="19" cy="130" r="1" fill="white"/>
<circle id="Ellipse 34" cx="19" cy="134" r="1" fill="white"/>
<circle id="Ellipse 35" cx="19" cy="138" r="1" fill="white"/>
</g>
<defs>
<filter id="filter0_d_202_107" x="0" y="43" width="38" height="38" filterUnits="userSpaceOnUse" color-interpolation-filters="sRGB">
<feFlood flood-opacity="0" result="BackgroundImageFix"/>
<feColorMatrix in="SourceAlpha" type="matrix" values="0 0 0 0 0 0 0 0 0 0 0 0 0 0 0 0 0 0 127 0" result="hardAlpha"/>
<feOffset dy="3"/>
<feGaussianBlur stdDeviation="2"/>
<feComposite in2="hardAlpha" operator="out"/>
<feColorMatrix type="matrix" values="0 0 0 0 0 0 0 0 0 0 0 0 0 0 0 0 0 0 0.2 0"/>
<feBlend mode="normal" in2="BackgroundImageFix" result="effect1_dropShadow_202_107"/>
<feBlend mode="normal" in="SourceGraphic" in2="effect1_dropShadow_202_107" result="shape"/>
</filter>
</defs>
</svg>
